<svg xmlns="http://www.w3.org/2000/svg" width="222" height="119.823" viewBox="0 0 222 119.823"><path fill="#2FBA9F" d="M10.64 114.32c0 3.577-2.165 5.387-5.387 5.387-2.384 0-4.26-.993-5.253-3.156l2.892-1.565c.53 1.19 1.28 1.633 2.25 1.633 1.28 0 1.966-.795 1.966-2.207v-9.668h3.53v9.58zM15.22 119.442v-14.7h11.213v3.157H18.73v2.49h6.71v2.806h-6.71v3.112h7.924v3.134zM40.015 119.442l-5.518-10.066v10.066H31.12v-14.7h4.392l5.364 9.844v-9.845h3.355v14.702zM61.132 107.457l-2.627 1.633c-.883-1.236-2.273-1.766-3.665-1.766-1.236 0-2.118.44-2.118 1.39 0 1.082 1.412 1.303 3 1.59 3.09.552 5.695 1.48 5.695 4.524 0 2.782-2.23 4.88-6.18 4.88-3.202 0-5.65-1.37-6.82-3.687l2.758-1.456c.97 1.655 2.56 2.273 4.216 2.273 1.546 0 2.562-.574 2.562-1.523 0-1.235-1.436-1.456-3.202-1.766-3-.53-5.54-1.48-5.54-4.57 0-2.802 2.296-4.5 5.694-4.5 2.342 0 4.75.793 6.228 2.98"/><path fill="#2FBA9F" d="M65.926 119.442v-14.7H77.14v3.157h-7.703v2.49h6.71v2.806h-6.71v3.112h7.923v3.134zM90.836 119.442l-5.517-10.066v10.066H81.94v-14.7h4.392l5.365 9.844v-9.845h3.354v14.702zM109.022 119.442v-14.7h11.214v3.157h-7.704v2.49h6.71v2.806h-6.71v3.112h7.925v3.134zM134.95 109.75c-.883-1.544-2.052-2.228-3.598-2.228-2.383 0-3.84 1.94-3.84 4.525 0 2.626 1.457 4.612 3.84 4.612 1.655 0 2.715-.86 3.555-2.43l2.913 1.523c-1.324 2.473-3.51 3.95-6.533 3.95-4.37 0-7.395-3.067-7.395-7.637 0-4.546 3.023-7.592 7.372-7.592 2.605 0 4.945 1.06 6.468 3.664l-2.78 1.613zM148.373 119.707c-4.7 0-7.505-3.354-7.505-7.614 0-4.24 2.804-7.615 7.505-7.615 4.7 0 7.55 3.376 7.55 7.615-.002 4.26-2.85 7.614-7.55 7.614m0-12.008c-2.517 0-3.86 1.965-3.86 4.393 0 2.45 1.344 4.393 3.86 4.393s3.885-1.943 3.885-4.393c0-2.428-1.37-4.394-3.885-4.394"/><path fill="#2FBA9F" d="M159.622 119.442v-14.7h3.508v11.566h7.44v3.134zM180.285 119.707c-4.702 0-7.506-3.354-7.506-7.614 0-4.24 2.803-7.615 7.505-7.615 4.7 0 7.55 3.376 7.55 7.615-.002 4.26-2.85 7.614-7.55 7.614m0-12.008c-2.517 0-3.862 1.965-3.862 4.393 0 2.45 1.346 4.393 3.862 4.393s3.884-1.943 3.884-4.393c-.002-2.428-1.37-4.394-3.885-4.394M205.044 108.17l-2.893 1.63c-.837-1.587-2.028-2.162-3.507-2.162-2.518 0-3.84 1.922-3.84 4.504 0 2.98 1.478 4.68 3.883 4.68 1.744 0 3.245-.905 3.465-2.517h-3.42V111.5h6.976c.066.355.11.95.11 1.325 0 3.863-2.493 6.997-7.173 6.997-4.482 0-7.483-3.067-7.483-7.658 0-4.592 2.98-7.57 7.505-7.57 2.87 0 5.1 1.345 6.38 3.575"/><path fill="#2FBA9F" d="M216.305 113.908v5.65h-3.51v-5.606l-5.672-9.094h4.105l3.333 5.85 3.357-5.85H222z"/><path fill="#999B9E" d="M143.9 2.326C143.235.95 141.83 0 140.2 0c-1.843 0-3.403 1.216-3.922 2.89l-8.51 29.843-18.416 11.252c-6.087 3.82-8.607 11.17-6.576 17.724 1.164 4.28 4.494 7.853 9.084 9.11l3.47-12.09 15.816-9.834c6.195-4.82 7.86-13.637 3.623-20.438l3.385-19.083c.4-2.26 1.57-3.51 3.508-3.51h10.62l-8.384-3.54z"/><path fill="#DC2827" d="M143.91 2.34C143.25.958 141.837 0 140.2 0c-.65 0-1.265.153-1.81.423-.76.375-1.385.974-1.792 1.712l3.988.945h.002l.036.012.48.114c.173.03.35.048.533.048.744 0 1.427-.25 1.977-.668l.23-.19c.02-.018.04-.034.058-.053l.008-.002z"/><path fill="#67686B" d="M146.996 89.914L127.022 72.2l4.125-23.306-12.103 7.495 1.122 2.96-3.312 11.594-3.217 24.924c-.032.257.152.49.408.52.02.004.038.005.057.005.233 0 .437-.174.467-.413l3.057-23.53 4.434-9.13 4.08 9.365 20.232 17.93c.09.08.2.12.312.12.13 0 .257-.055.352-.158.172-.196.153-.494-.04-.663"/><path fill="#696969" d="M91.45 63.967v.01z"/><path fill="#67686B" d="M102.423 92.35l-14.42-11.217 3.25-16.183c-.714 2.915-2.53 5.56-5.288 7.255-2.27 1.394-4.82 1.93-7.282 1.698l-1 5.082-6.537 14.93c-.038.09-.04.187-.01.274.034.1.11.187.217.232.197.083.424-.01.507-.207l7.224-16.533 4.47-4.214 3.18 7.653 15.213 11.842c.078.06.17.085.263.08.107-.008.21-.06.28-.148.133-.168.102-.412-.067-.543"/><path fill="#999B9E" d="M89.002 42.2h4.955l-4.6-1.944c-.262-1.13-1.275-1.974-2.487-1.974-1.41 0-2.553 1.143-2.553 2.55 0 1.218 1.31 9.623 2.054 14.29.024.18.035.363.035.548 0 1.482-.75 2.79-1.894 3.56l-14.798 9.096c3.416 5.56 10.69 7.296 16.252 3.88 5.557-3.416 7.292-10.69 3.877-16.25L87.466 44.08c-.02-.103-.032-.208-.032-.317.002-.866.704-1.566 1.57-1.566"/></svg>